name Run_40002_GRF.mot
datacolumns 19
datarows 23
range 2.567 2.589
endheader
time	     ground_force_vx	     ground_force_vy	     ground_force_vz	     ground_force_px	     ground_force_py	     ground_force_pz	   l_ground_force_vx	   l_ground_force_vy	   l_ground_force_vz	   l_ground_force_px	   l_ground_force_py	   l_ground_force_pz	     ground_torque_x	     ground_torque_y	     ground_torque_z	   l_ground_torque_x	   l_ground_torque_y	   l_ground_torque_z	
2.567	          0.00000000	          0.00000000	          0.00000000	          0.00000000	          0.00000000	          0.00000000	          0.00000000	          0.00000000	          0.00000000	          0.00000000	          0.00000000	          0.00000000	          0.00000000	          0.00000000	          0.00000000	          0.00000000	          0.00000000	          0.00000000	
2.568	          0.00000000	          0.00000000	          0.00000000	          0.00000000	          0.00000000	          0.00000000	          0.00000000	          0.00000000	          0.00000000	          0.00000000	          0.00000000	          0.00000000	          0.00000000	          0.00000000	          0.00000000	          0.00000000	          0.00000000	          0.00000000	
2.569	          0.00000000	          0.00000000	          0.00000000	          0.00000000	          0.00000000	          0.00000000	          0.00000000	          0.00000000	          0.00000000	          0.00000000	          0.00000000	          0.00000000	          0.00000000	          0.00000000	          0.00000000	          0.00000000	          0.00000000	          0.00000000	
2.57	          0.00000000	          0.00000000	          0.00000000	          0.00000000	          0.00000000	          0.00000000	          0.00000000	          0.00000000	          0.00000000	          0.00000000	          0.00000000	          0.00000000	          0.00000000	          0.00000000	          0.00000000	          0.00000000	          0.00000000	          0.00000000	
2.571	          0.00000000	          0.00000000	          0.00000000	          0.00000000	          0.00000000	          0.00000000	         -5.27568500	         10.94536600	          0.45271700	          1.07365900	          0.00000000	         -0.33739000	          0.00000000	          0.00000000	          0.00000000	         -0.00000000	          1.51723700	         -0.00000000	
2.572	          0.00000000	          0.00000000	          0.00000000	          0.00000000	          0.00000000	          0.00000000	         -5.73535400	         12.40325000	          0.49631400	          1.08102300	          0.00000000	         -0.34728000	          0.00000000	          0.00000000	          0.00000000	         -0.00000000	          1.36548800	         -0.00000000	
2.573	          0.00000000	          0.00000000	          0.00000000	          0.00000000	          0.00000000	          0.00000000	         -6.24447800	         14.12231100	          0.55481800	          1.08746900	          0.00000000	         -0.35586100	          0.00000000	          0.00000000	          0.00000000	         -0.00000000	          1.19979600	         -0.00000000	
2.574	          0.00000000	          0.00000000	          0.00000000	          0.00000000	          0.00000000	          0.00000000	         -6.80824900	         16.13971500	          0.63047800	          1.09303500	          0.00000000	         -0.36318900	          0.00000000	          0.00000000	          0.00000000	         -0.00000000	          1.02025800	         -0.00000000	
2.575	          0.00000000	          0.00000000	          0.00000000	          0.00000000	          0.00000000	          0.00000000	         -7.43170900	         18.49604000	          0.72578900	          1.09779000	          0.00000000	         -0.36936500	          0.00000000	          0.00000000	          0.00000000	         -0.00000000	          0.82702400	         -0.00000000	
2.576	          0.00000000	          0.00000000	          0.00000000	          0.00000000	          0.00000000	          0.00000000	         -8.11960200	         21.23531000	          0.84349700	          1.10181600	          0.00000000	         -0.37450700	          0.00000000	          0.00000000	          0.00000000	         -0.00000000	          0.62030100	         -0.00000000	
2.577	          0.00000000	          0.00000000	          0.00000000	          0.00000000	          0.00000000	          0.00000000	         -8.87619200	         24.40499100	          0.98661200	          1.10520100	          0.00000000	         -0.37874700	          0.00000000	          0.00000000	          0.00000000	         -0.00000000	          0.40035100	         -0.00000000	
2.578	          0.00000000	          0.00000000	          0.00000000	          0.00000000	          0.00000000	          0.00000000	         -9.70506500	         28.05594600	          1.15840500	          1.10803300	          0.00000000	         -0.38221000	          0.00000000	          0.00000000	          0.00000000	         -0.00000000	          0.16749300	         -0.00000000	
2.579	          0.00000000	          0.00000000	          0.00000000	          0.00000000	          0.00000000	          0.00000000	        -10.60891800	         32.24232900	          1.36241100	          1.11039200	          0.00000000	         -0.38501600	          0.00000000	          0.00000000	          0.00000000	          0.00000000	         -0.07789800	          0.00000000	
2.58	          0.00000000	          0.00000000	          0.00000000	          0.00000000	          0.00000000	          0.00000000	        -11.58934300	         37.02142300	          1.60242000	          1.11235000	          0.00000000	         -0.38727300	          0.00000000	          0.00000000	          0.00000000	          0.00000000	         -0.33538700	          0.00000000	
2.581	          0.00000000	          0.00000000	          0.00000000	          0.00000000	          0.00000000	          0.00000000	        -12.64662000	         42.45341900	          1.88246600	          1.11396900	          0.00000000	         -0.38907400	          0.00000000	          0.00000000	          0.00000000	          0.00000000	         -0.60448300	          0.00000000	
2.582	          0.00000000	          0.00000000	          0.00000000	          0.00000000	          0.00000000	          0.00000000	        -13.77953200	         48.60111200	          2.20681000	          1.11529900	          0.00000000	         -0.39049800	          0.00000000	          0.00000000	          0.00000000	          0.00000000	         -0.88463700	          0.00000000	
2.583	          0.00000000	          0.00000000	          0.00000000	          0.00000000	          0.00000000	          0.00000000	        -14.98522900	         55.52954500	          2.57990500	          1.11638400	          0.00000000	         -0.39161100	          0.00000000	          0.00000000	          0.00000000	          0.00000000	         -1.17524200	          0.00000000	
2.584	          0.00000000	          0.00000000	          0.00000000	          0.00000000	          0.00000000	          0.00000000	        -16.25914600	         63.30551100	          3.00637100	          1.11725800	          0.00000000	         -0.39246900	          0.00000000	          0.00000000	          0.00000000	          0.00000000	         -1.47563700	          0.00000000	
2.585	          0.00000000	          0.00000000	          0.00000000	          0.00000000	          0.00000000	          0.00000000	        -17.59499500	         71.99703200	          3.49094300	          1.11794900	          0.00000000	         -0.39311400	          0.00000000	          0.00000000	          0.00000000	          0.00000000	         -1.78510300	          0.00000000	
2.586	          0.00000000	          0.00000000	          0.00000000	          0.00000000	          0.00000000	          0.00000000	        -18.98486900	         81.67266800	          4.03841900	          1.11847900	          0.00000000	         -0.39358300	          0.00000000	          0.00000000	          0.00000000	          0.00000000	         -2.10286900	          0.00000000	
2.587	          0.00000000	          0.00000000	          0.00000000	          0.00000000	          0.00000000	          0.00000000	        -20.41942000	         92.40078700	          4.65359500	          1.11886600	          0.00000000	         -0.39390400	          0.00000000	          0.00000000	          0.00000000	          0.00000000	         -2.42811000	          0.00000000	
2.588	          0.00000000	          0.00000000	          0.00000000	          0.00000000	          0.00000000	          0.00000000	        -21.88818600	        104.24868000	          5.34119600	          1.11912300	          0.00000000	         -0.39409900	          0.00000000	          0.00000000	          0.00000000	          0.00000000	         -2.75995200	          0.00000000	
2.589	          0.00000000	          0.00000000	          0.00000000	          0.00000000	          0.00000000	          0.00000000	        -23.37999000	        117.28159300	          6.10578300	          1.11926200	          0.00000000	         -0.39418600	          0.00000000	          0.00000000	          0.00000000	          0.00000000	         -3.09747300	          0.00000000	
